<?xml version="1.0" encoding="UTF-8"?>
<svg version="1.1" xmlns="http://www.w3.org/2000/svg" width="400" height="300">
<path d="M0 0 C132 0 264 0 400 0 C400 99 400 198 400 300 C268 300 136 300 0 300 C0 201 0 102 0 0 Z " fill="#000000" transform="translate(0,0)"/>
<path d="M0 0 C15.18 0 30.36 0 46 0 C46 0.99 46 1.98 46 3 C45.07767578 3.16435547 45.07767578 3.16435547 44.13671875 3.33203125 C43.32847656 3.49058594 42.52023438 3.64914063 41.6875 3.8125 C40.48673828 4.03873047 40.48673828 4.03873047 39.26171875 4.26953125 C36.70960726 5.09378833 35.64683212 5.90725641 34 8 C33.01896712 10.94309863 32.84778313 12.9496903 32.79467773 16.0222168 C32.77473251 17.04304855 32.75478729 18.06388031 32.73423767 19.11564636 C32.70916893 20.76576469 32.70916893 20.76576469 32.68359375 22.44921875 C32.66281265 23.5769722 32.64203156 24.70472565 32.62062073 25.86665344 C32.55517153 29.4735396 32.49626156 33.08049929 32.4375 36.6875 C32.39431039 39.13086702 32.35069596 41.57422656 32.30664062 44.01757812 C32.19949484 50.01164074 32.09771971 56.00577671 32 62 C33.06737396 61.98341339 33.06737396 61.98341339 34.15631104 61.9664917 C39.57824041 61.91775449 44.74558856 62.05889958 50.109375 62.953125 C51.35074219 63.15784424 52.59210938 63.36256348 53.87109375 63.57348633 C55.15113281 63.79673584 56.43117187 64.01998535 57.75 64.25 C58.41596191 64.36459564 59.08192383 64.47919128 59.76806641 64.59725952 C74.62012591 67.15993547 88.39081213 70.96038911 102.50390625 76.27075195 C103.40238281 76.6080835 104.30085938 76.94541504 105.2265625 77.29296875 C106.02658691 77.5974292 106.82661133 77.90188965 107.65087891 78.21557617 C116.66490797 81.22556114 125.71986602 80.91999106 134.4921875 77.30859375 C142.95035888 72.89506196 146.01425074 65.74750507 149 57 C152.21887026 45.72963925 150.94498833 31.23678883 145.93359375 20.7734375 C141.23907368 12.49992687 135.89411754 9.33529408 127 6 C117.43 6 107.86 6 98 6 C98 26.46 98 46.92 98 68 C82 63 82 63 81 62 C80.88771442 60.4310081 80.84325097 58.85709425 80.82641602 57.28417969 C80.81292618 56.27933533 80.79943634 55.27449097 80.78553772 54.23919678 C80.76988014 52.5971225 80.76988014 52.5971225 80.75390625 50.921875 C80.72096013 48.62369422 80.68774861 46.32551723 80.65429688 44.02734375 C80.60690674 40.38886198 80.56250426 36.75039476 80.52319336 33.11181641 C80.48345814 29.61083446 80.43190541 26.11017775 80.37890625 22.609375 C80.3704921 21.52275574 80.36207794 20.43613647 80.35340881 19.31658936 C80.33676682 18.29913635 80.32012482 17.28168335 80.30297852 16.23339844 C80.28751732 14.89556305 80.28751732 14.89556305 80.27174377 13.53070068 C79.96351884 10.66025758 79.3517856 8.55278254 78 6 C74.63384485 4.65725128 74.63384485 4.65725128 71 4 C70.195625 3.79375 69.39125 3.5875 68.5625 3.375 C68.046875 3.25125 67.53125 3.1275 67 3 C67 2.01 67 1.02 67 0 C75.32891029 -0.11686296 83.65746692 -0.20519793 91.98699951 -0.25906086 C95.85654055 -0.28493816 99.72551277 -0.31992374 103.59472656 -0.37719727 C107.34252342 -0.43231387 111.08978018 -0.46158393 114.83795166 -0.47438622 C116.25385013 -0.4834859 117.66972569 -0.50124583 119.08538818 -0.52865028 C133.508143 -0.79623849 148.02376581 1.96818367 159 12 C161.42286145 14.48195563 163.24999779 17.00889831 165 20 C165.48597656 20.804375 165.97195313 21.60875 166.47265625 22.4375 C171.74476787 32.77612557 171.67045415 45.49494521 169.18359375 56.66796875 C164.99304507 67.95470789 155.72390946 76.98893368 144.9765625 82.12109375 C131.73691022 88.00829091 115.94068001 87.68642018 102.44140625 82.97265625 C100 82 100 82 98 81 C98.09401248 85.99909476 98.20020923 90.99773227 98.31738281 95.99633789 C98.35551129 97.69450924 98.39039146 99.39275692 98.421875 101.09106445 C98.46787822 103.54145467 98.52581151 105.99132667 98.5859375 108.44140625 C98.59748871 109.19273331 98.60903992 109.94406036 98.62094116 110.71815491 C98.75208598 115.47177229 99.51445122 119.47819801 101 124 C104.96 124.99 108.92 125.98 113 127 C113 127.99 113 128.98 113 130 C97.49 130 81.98 130 66 130 C66 129.01 66 128.02 66 127 C67.03060547 126.83564453 67.03060547 126.83564453 68.08203125 126.66796875 C68.98308594 126.50941406 69.88414062 126.35085937 70.8125 126.1875 C71.70582031 126.03667969 72.59914063 125.88585937 73.51953125 125.73046875 C76.28283486 124.91670847 77.33768353 124.33353574 79 122 C80.37224607 117.18658302 80.12632207 112.28334911 80.09765625 107.32421875 C80.0962413 106.3990596 80.09482635 105.47390045 80.09336853 104.52070618 C80.08778715 101.57627073 80.07523805 98.63191233 80.0625 95.6875 C80.05748259 93.68685006 80.05292011 91.68619892 80.04882812 89.68554688 C80.03782381 84.79033506 80.02057198 79.89518058 80 75 C69.22282879 71.78528885 58.72233523 69.95993899 47.5625 68.75 C46.04089817 68.57654811 44.51941259 68.40207333 42.99804688 68.2265625 C39.33328795 67.80597421 35.66717806 67.39901771 32 67 C32.09236956 74.31427709 32.19968877 81.62822554 32.31738281 88.94213867 C32.35565578 91.43004383 32.39051157 93.91800401 32.421875 96.40600586 C32.46756142 99.98311012 32.52555108 103.55983617 32.5859375 107.13671875 C32.59748871 108.24834885 32.60903992 109.35997894 32.62094116 110.5052948 C32.64081085 111.54599625 32.66068054 112.58669769 32.68115234 113.65893555 C32.69447601 114.5716069 32.70779968 115.48427826 32.7215271 116.42460632 C33.03070286 119.28394845 33.7167062 121.43007512 35 124 C38.48154223 125.93419013 42.08255363 126.45337958 46 127 C46 127.99 46 128.98 46 130 C30.82 130 15.64 130 0 130 C0 129.01 0 128.02 0 127 C0.75925781 126.84144531 1.51851563 126.68289062 2.30078125 126.51953125 C3.79158203 126.16955078 3.79158203 126.16955078 5.3125 125.8125 C6.29863281 125.59207031 7.28476563 125.37164062 8.30078125 125.14453125 C11.91815735 123.61068002 12.43249406 122.62906819 14 119 C14.47459373 115.12202175 14.48882986 111.25900821 14.51171875 107.35546875 C14.52966995 106.2305452 14.54762115 105.10562164 14.56611633 103.9466095 C14.62021716 100.36027757 14.65411525 96.77407875 14.6875 93.1875 C14.72067317 90.75323669 14.75516282 88.31899094 14.79101562 85.88476562 C14.87594396 79.9232731 14.94275691 73.96182005 15 68 C9.72 68.66 4.44 69.32 -1 70 C-1 68.35 -1 66.7 -1 65 C2.66447432 63.35199144 5.81203466 62.66419027 9.8125 62.375 C10.78832031 62.30023438 11.76414062 62.22546875 12.76953125 62.1484375 C13.50558594 62.09945312 14.24164063 62.05046875 15 62 C14.93298732 54.82803247 14.84317523 47.65660951 14.73754883 40.48510742 C14.70430583 38.04572017 14.67627199 35.60625612 14.65356445 33.16674805 C14.62000783 29.65900968 14.56768951 26.15197475 14.51171875 22.64453125 C14.50532883 21.55477493 14.4989389 20.46501862 14.49235535 19.34223938 C14.46915516 12.13569989 14.46915516 12.13569989 11 6 C7.49011067 4.10276253 3.92847299 3.54815902 0 3 C0 2.01 0 1.02 0 0 Z " fill="#FBFBFB" transform="translate(115,85)"/>
</svg>
